<?xml version="1.0" encoding="UTF-8"?>
<!DOCTYPE svg PUBLIC "-//W3C//DTD SVG 1.1//EN" "http://www.w3.org/Graphics/SVG/1.1/DTD/svg11.dtd">
<svg xmlns="http://www.w3.org/2000/svg" version="1.1" width="740px" height="282px" style="shape-rendering:geometricPrecision; text-rendering:geometricPrecision; image-rendering:optimizeQuality; fill-rule:evenodd; clip-rule:evenodd" xmlns:xlink="http://www.w3.org/1999/xlink">
<g><path style="opacity:1" fill="#53aa6d" d="M -0.5,-0.5 C 246.167,-0.5 492.833,-0.5 739.5,-0.5C 739.5,93.5 739.5,187.5 739.5,281.5C 492.833,281.5 246.167,281.5 -0.5,281.5C -0.5,247.833 -0.5,214.167 -0.5,180.5C 9.91441,181.62 12.2477,177.62 6.5,168.5C 4.25731,167.526 1.92397,167.192 -0.5,167.5C -0.5,111.5 -0.5,55.5 -0.5,-0.5 Z"/></g>
<g><path style="opacity:1" fill="#5da572" d="M 413.5,16.5 C 414.833,16.5 416.167,16.5 417.5,16.5C 418.649,20.0924 419.649,23.759 420.5,27.5C 420.132,28.91 419.299,29.91 418,30.5C 416.063,25.9958 414.563,21.3291 413.5,16.5 Z"/></g>
<g><path style="opacity:1" fill="#5ca572" d="M 404.5,19.5 C 406.39,19.2965 407.89,19.9632 409,21.5C 415.335,30.3335 413.168,34.5001 402.5,34C 399.445,29.3231 400.779,26.3231 406.5,25C 404.432,24.3131 402.432,24.4798 400.5,25.5C 400.167,25 399.833,24.5 399.5,24C 400.761,22.0382 402.428,20.5382 404.5,19.5 Z"/></g>
<g><path style="opacity:1" fill="#5da572" d="M 386.5,26.5 C 388.429,26.2308 390.095,26.7308 391.5,28C 390.437,29.1882 389.103,29.6882 387.5,29.5C 387.401,32.6727 388.068,35.6727 389.5,38.5C 389.132,39.91 388.299,40.91 387,41.5C 384.779,37.7759 383.279,33.7759 382.5,29.5C 383.624,28.1408 384.958,27.1408 386.5,26.5 Z"/></g>
<g><path style="opacity:1" fill="#5ca572" d="M 371.5,31.5 C 376.822,30.3509 379.655,32.3509 380,37.5C 377.808,39.2353 375.308,40.402 372.5,41C 374.893,42.8294 377.227,42.6627 379.5,40.5C 381.488,41.2888 381.821,42.4555 380.5,44C 373.781,47.3494 369.447,45.5161 367.5,38.5C 368.071,35.6873 369.404,33.354 371.5,31.5 Z"/></g>
<g><path style="opacity:1" fill="#5da572" d="M 356.5,33.5 C 357.991,36.0907 360.325,37.0907 363.5,36.5C 362.613,38.9372 361.78,41.2705 361,43.5C 362.01,46.4475 363.843,47.1142 366.5,45.5C 367.731,46.6507 367.731,47.8173 366.5,49C 363.819,51.1028 361.319,50.9361 359,48.5C 356.779,44.7759 355.279,40.7759 354.5,36.5C 355.193,35.4822 355.859,34.4822 356.5,33.5 Z"/></g>
<g><path style="opacity:1" fill="#5ca572" d="M 347.5,40.5 C 348.833,40.5 350.167,40.5 351.5,40.5C 351.5,41.8333 351.5,43.1667 351.5,44.5C 350.022,44.238 348.689,44.5713 347.5,45.5C 358.067,48.7769 358.067,52.4436 347.5,56.5C 345.889,55.6798 345.222,54.3464 345.5,52.5C 347.564,52.313 349.564,51.813 351.5,51C 349.111,49.9039 346.611,49.0706 344,48.5C 342.968,44.7361 344.134,42.0694 347.5,40.5 Z"/></g>
<g><path style="opacity:1" fill="#5ca572" d="M 334.5,45.5 C 339.283,47.5385 341.95,51.2052 342.5,56.5C 339.331,59.5412 335.665,60.5412 331.5,59.5C 330.738,58.3717 330.071,57.2051 329.5,56C 330.833,53.3333 332.833,51.3333 335.5,50C 333.536,49.376 331.869,49.876 330.5,51.5C 328.889,50.6798 328.222,49.3464 328.5,47.5C 330.786,47.405 332.786,46.7384 334.5,45.5 Z"/></g>
<g><path style="opacity:1" fill="#fafcfa" d="M 318.5,50.5 C 317.708,52.2572 316.375,53.5905 314.5,54.5C 312.164,53.9766 309.83,54.4766 307.5,56C 303.975,56.1787 300.641,56.6787 297.5,57.5C 296.669,72.3277 296.169,87.3277 296,102.5C 293.577,104.994 291.244,104.994 289,102.5C 288.5,87.5037 288.333,72.5037 288.5,57.5C 285.5,57.5 282.5,57.5 279.5,57.5C 279.333,73.5035 279.5,89.5035 280,105.5C 287.032,112.197 293.698,119.197 300,126.5C 300.5,156.498 300.667,186.498 300.5,216.5C 304.846,216.666 309.179,216.499 313.5,216C 314.381,215.292 315.047,214.458 315.5,213.5C 316.499,164.67 316.832,115.67 316.5,66.5C 318.346,66.7778 319.68,66.1112 320.5,64.5C 319.805,61.7198 318.805,59.0531 317.5,56.5C 318.689,55.5713 320.022,55.238 321.5,55.5C 321.707,58.2406 322.707,60.5739 324.5,62.5C 324.667,113.501 324.5,164.501 324,215.5C 322.86,220.64 319.694,223.807 314.5,225C 273.501,225.5 232.501,225.667 191.5,225.5C 191.5,228.167 191.5,230.833 191.5,233.5C 204.837,233.333 218.171,233.5 231.5,234C 233.619,236.218 233.952,238.718 232.5,241.5C 202.209,242.659 171.875,242.825 141.5,242C 138.833,239.333 138.833,236.667 141.5,234C 154.829,233.5 168.163,233.333 181.5,233.5C 182.477,230.713 182.81,227.713 182.5,224.5C 141.167,224.5 99.8333,224.5 58.5,224.5C 53.2517,223.753 50.085,220.753 49,215.5C 48.5001,198.503 48.3334,181.503 48.5,164.5C 48.5,161.5 48.5,158.5 48.5,155.5C 48.3334,123.165 48.5,90.8316 49,58.5C 50.0311,53.7982 52.8644,50.6315 57.5,49C 143.833,48.3333 230.167,48.3333 316.5,49C 317.416,49.2784 318.082,49.7784 318.5,50.5 Z"/></g>
<g><path style="opacity:1" fill="#cbe0d1" d="M 318.5,50.5 C 322.961,53.1878 324.961,57.1878 324.5,62.5C 322.707,60.5739 321.707,58.2406 321.5,55.5C 320.022,55.238 318.689,55.5713 317.5,56.5C 318.805,59.0531 319.805,61.7198 320.5,64.5C 319.68,66.1112 318.346,66.7778 316.5,66.5C 316.832,115.67 316.499,164.67 315.5,213.5C 315.667,161.832 315.5,110.166 315,58.5C 309.259,57.5251 303.425,57.1918 297.5,57.5C 300.641,56.6787 303.975,56.1787 307.5,56C 309.83,54.4766 312.164,53.9766 314.5,54.5C 316.375,53.5905 317.708,52.2572 318.5,50.5 Z"/></g>
<g><path style="opacity:1" fill="#cee7d5" d="M 83.5,57.5 C 86.2869,56.5233 89.2869,56.19 92.5,56.5C 92.8297,72.6754 92.4964,88.6754 91.5,104.5C 91.5,88.8333 91.5,73.1667 91.5,57.5C 88.8333,57.5 86.1667,57.5 83.5,57.5 Z"/></g>
<g><path style="opacity:1" fill="#53aa6d" d="M 83.5,57.5 C 86.1667,57.5 88.8333,57.5 91.5,57.5C 91.5,73.1667 91.5,88.8333 91.5,104.5C 84.1311,111.867 77.1311,119.534 70.5,127.5C 69.5019,156.995 69.1686,186.662 69.5,216.5C 66.1501,216.665 62.8168,216.498 59.5,216C 59,215.5 58.5,215 58,214.5C 57.3333,162.833 57.3333,111.167 58,59.5C 63.1973,57.5798 68.6973,56.9132 74.5,57.5C 74.3334,72.5037 74.5001,87.5037 75,102.5C 78.0124,105.25 80.679,104.917 83,101.5C 83.4999,86.8371 83.6666,72.1705 83.5,57.5 Z"/></g>
<g><path style="opacity:1" fill="#54aa6d" d="M 100.5,57.5 C 157.167,57.5 213.833,57.5 270.5,57.5C 270.5,62.5 270.5,67.5 270.5,72.5C 265.087,70.0853 261.421,71.5853 259.5,77C 260.239,83.9537 263.906,86.4537 270.5,84.5C 270.175,92.3516 270.508,100.018 271.5,107.5C 277.361,115.871 284.194,123.537 292,130.5C 292.5,159.165 292.667,187.831 292.5,216.5C 289.5,216.5 286.5,216.5 283.5,216.5C 283.667,192.831 283.5,169.164 283,145.5C 280.385,142.93 277.718,142.93 275,145.5C 274.5,169.164 274.333,192.831 274.5,216.5C 215.167,216.5 155.833,216.5 96.5,216.5C 96.6666,192.831 96.5,169.164 96,145.5C 93.3333,142.833 90.6667,142.833 88,145.5C 87.5,169.164 87.3334,192.831 87.5,216.5C 84.5,216.5 81.5,216.5 78.5,216.5C 78.5,195.833 78.5,175.167 78.5,154.5C 78.5,150.833 78.5,147.167 78.5,143.5C 78.3343,139.154 78.501,134.821 79,130.5C 86.3648,123.47 93.3648,116.136 100,108.5C 100.5,91.5033 100.667,74.5033 100.5,57.5 Z"/></g>
<g><path style="opacity:1" fill="#58ab70" d="M 297.5,57.5 C 303.425,57.1918 309.259,57.5251 315,58.5C 315.5,110.166 315.667,161.832 315.5,213.5C 315.047,214.458 314.381,215.292 313.5,216C 309.179,216.499 304.846,216.666 300.5,216.5C 300.667,186.498 300.5,156.498 300,126.5C 293.698,119.197 287.032,112.197 280,105.5C 279.5,89.5035 279.333,73.5035 279.5,57.5C 282.5,57.5 285.5,57.5 288.5,57.5C 288.333,72.5037 288.5,87.5037 289,102.5C 291.244,104.994 293.577,104.994 296,102.5C 296.169,87.3277 296.669,72.3277 297.5,57.5 Z"/></g>
<g><path style="opacity:1" fill="#fcfdfc" d="M 648.5,125.5 C 647.199,128.101 645.866,130.768 644.5,133.5C 639.771,141.712 632.771,147.212 623.5,150C 593.524,155.697 575.69,143.53 570,113.5C 567.474,75.0248 585.307,58.1915 623.5,63C 637.537,67.5285 645.537,77.0285 647.5,91.5C 640.161,92.584 632.828,92.584 625.5,91.5C 623.237,80.3815 616.571,76.2149 605.5,79C 601.212,81.2917 598.378,84.7917 597,89.5C 593.775,101.138 593.775,112.805 597,124.5C 603.133,135.235 611.633,137.402 622.5,131C 626.145,128.042 628.812,124.375 630.5,120C 636.52,119.648 642.353,120.481 648,122.5C 648.483,123.448 648.649,124.448 648.5,125.5 Z"/></g>
<g><path style="opacity:1" fill="#fdfefd" d="M 373.5,62.5 C 380.891,62.2012 388.224,62.5345 395.5,63.5C 396.499,74.1459 396.832,84.8126 396.5,95.5C 405.5,95.5 414.5,95.5 423.5,95.5C 423.333,84.8281 423.5,74.1615 424,63.5C 431.747,62.5183 439.58,62.185 447.5,62.5C 447.5,91.8333 447.5,121.167 447.5,150.5C 439.804,150.831 432.138,150.497 424.5,149.5C 423.521,137.884 423.188,126.218 423.5,114.5C 414.827,114.334 406.16,114.5 397.5,115C 396.678,126.424 396.178,137.924 396,149.5C 388.253,150.482 380.42,150.815 372.5,150.5C 372.175,121.093 372.509,91.7596 373.5,62.5 Z"/></g>
<g><path style="opacity:1" fill="#fefefe" d="M 475.5,62.5 C 489.504,62.3334 503.504,62.5001 517.5,63C 544.068,65.2216 553.568,79.055 546,104.5C 541.357,111.461 534.857,115.628 526.5,117C 517.204,118.182 507.87,118.682 498.5,118.5C 498.666,128.839 498.5,139.172 498,149.5C 490.253,150.482 482.42,150.815 474.5,150.5C 474.175,121.093 474.509,91.7596 475.5,62.5 Z"/></g>
<g><path style="opacity:1" fill="#5da572" d="M 250.5,69.5 C 252.278,74.1366 254.278,78.8032 256.5,83.5C 258.98,84.4154 259.647,85.9154 258.5,88C 256.888,88.7203 255.388,88.5536 254,87.5C 251.374,82.276 249.374,76.9426 248,71.5C 248.995,70.9341 249.828,70.2674 250.5,69.5 Z"/></g>
<g><path style="opacity:1" fill="#5ba671" d="M 270.5,72.5 C 270.5,76.5 270.5,80.5 270.5,84.5C 263.906,86.4537 260.239,83.9537 259.5,77C 261.421,71.5853 265.087,70.0853 270.5,72.5 Z"/></g>
<g><path style="opacity:1" fill="#57ac70" d="M 498.5,79.5 C 504.509,79.3338 510.509,79.5005 516.5,80C 524.787,83.7438 526.62,89.5771 522,97.5C 519.932,99.5615 517.432,100.728 514.5,101C 509.5,101.667 504.5,101.667 499.5,101C 498.52,93.9213 498.187,86.7546 498.5,79.5 Z"/></g>
<g><path style="opacity:1" fill="#f7fbf8" d="M 182.5,95.5 C 185.287,96.4767 188.287,96.81 191.5,96.5C 191.5,92.8333 191.5,89.1667 191.5,85.5C 193.563,82.0271 196.063,81.6938 199,84.5C 199.499,88.1516 199.665,91.8183 199.5,95.5C 202.5,95.5 205.5,95.5 208.5,95.5C 208.335,91.8183 208.501,88.1516 209,84.5C 211.423,82.0062 213.756,82.0062 216,84.5C 216.499,88.1516 216.665,91.8183 216.5,95.5C 225.833,93.5 229.5,97.1667 227.5,106.5C 231.182,106.335 234.848,106.501 238.5,107C 240.648,109.075 240.982,111.408 239.5,114C 235.605,115.266 231.605,115.766 227.5,115.5C 227.5,118.167 227.5,120.833 227.5,123.5C 231.182,123.335 234.848,123.501 238.5,124C 241.399,127.156 241.065,129.822 237.5,132C 234.183,132.498 230.85,132.665 227.5,132.5C 227.5,135.167 227.5,137.833 227.5,140.5C 230.85,140.335 234.183,140.502 237.5,141C 240.917,143.321 241.25,145.988 238.5,149C 234.848,149.499 231.182,149.665 227.5,149.5C 227.5,152.5 227.5,155.5 227.5,158.5C 231.182,158.335 234.848,158.501 238.5,159C 240.994,161.244 240.994,163.577 238.5,166C 234.848,166.499 231.182,166.665 227.5,166.5C 229.5,175.833 225.833,179.5 216.5,177.5C 216.824,181.555 216.491,185.555 215.5,189.5C 213.139,190.776 210.972,190.442 209,188.5C 208.501,184.848 208.335,181.182 208.5,177.5C 205.5,177.5 202.5,177.5 199.5,177.5C 199.665,181.182 199.499,184.848 199,188.5C 196.925,190.648 194.592,190.982 192,189.5C 191.501,185.514 191.334,181.514 191.5,177.5C 188.5,177.5 185.5,177.5 182.5,177.5C 182.665,181.182 182.499,184.848 182,188.5C 178.844,191.399 176.178,191.065 174,187.5C 173.502,184.183 173.335,180.85 173.5,177.5C 170.833,177.5 168.167,177.5 165.5,177.5C 165.665,180.85 165.498,184.183 165,187.5C 162.679,190.917 160.012,191.25 157,188.5C 156.501,184.848 156.335,181.182 156.5,177.5C 147.167,179.5 143.5,175.833 145.5,166.5C 141.818,166.665 138.152,166.499 134.5,166C 131.833,163.667 131.833,161.333 134.5,159C 138.152,158.501 141.818,158.335 145.5,158.5C 145.5,155.5 145.5,152.5 145.5,149.5C 141.818,149.665 138.152,149.499 134.5,149C 132.006,146.577 132.006,144.244 134.5,142C 138.152,141.501 141.818,141.335 145.5,141.5C 145.5,138.5 145.5,135.5 145.5,132.5C 141.818,132.665 138.152,132.499 134.5,132C 131.488,128.755 131.821,126.088 135.5,124C 138.817,123.502 142.15,123.335 145.5,123.5C 145.5,120.833 145.5,118.167 145.5,115.5C 142.15,115.665 138.817,115.498 135.5,115C 132.083,112.679 131.75,110.012 134.5,107C 138.152,106.501 141.818,106.335 145.5,106.5C 143.514,97.311 147.181,93.6444 156.5,95.5C 156.335,91.8183 156.501,88.1516 157,84.5C 159.423,82.0062 161.756,82.0062 164,84.5C 164.499,88.1516 164.665,91.8183 164.5,95.5C 167.5,95.5 170.5,95.5 173.5,95.5C 173.335,91.8183 173.501,88.1516 174,84.5C 176.957,82.9226 179.624,83.2559 182,85.5C 182.498,88.8168 182.665,92.1501 182.5,95.5 Z"/></g>
<g><path style="opacity:1" fill="#c0dfc8" d="M 100.5,57.5 C 157.331,56.501 214.331,56.1677 271.5,56.5C 271.5,73.5 271.5,90.5 271.5,107.5C 270.508,100.018 270.175,92.3516 270.5,84.5C 270.5,80.5 270.5,76.5 270.5,72.5C 270.5,67.5 270.5,62.5 270.5,57.5C 213.833,57.5 157.167,57.5 100.5,57.5 Z"/></g>
<g><path style="opacity:1" fill="#c5e2cd" d="M 191.5,85.5 C 191.5,89.1667 191.5,92.8333 191.5,96.5C 188.287,96.81 185.287,96.4767 182.5,95.5C 185.167,95.5 187.833,95.5 190.5,95.5C 190.187,91.9581 190.521,88.6248 191.5,85.5 Z"/></g>
<g><path style="opacity:1" fill="#5ca572" d="M 725.5,99.5 C 728.247,99.1866 730.914,99.52 733.5,100.5C 735.209,103.801 736.376,107.134 737,110.5C 734.384,111.653 731.718,112.653 729,113.5C 724.126,109.494 724.626,105.994 730.5,103C 728.203,102.982 725.869,103.149 723.5,103.5C 723.527,101.801 724.194,100.467 725.5,99.5 Z"/></g>
<g><path style="opacity:1" fill="#55ab6e" d="M 154.5,104.5 C 175.833,104.5 197.167,104.5 218.5,104.5C 218.5,125.833 218.5,147.167 218.5,168.5C 197.167,168.5 175.833,168.5 154.5,168.5C 154.5,147.167 154.5,125.833 154.5,104.5 Z"/></g>
<g><path style="opacity:1" fill="#5da572" d="M 713.5,103.5 C 719.854,105.386 722.521,109.552 721.5,116C 720.365,116.749 719.365,116.583 718.5,115.5C 718.052,112.318 716.718,109.651 714.5,107.5C 713.692,107.808 713.025,108.308 712.5,109C 713.344,111.7 714.344,114.367 715.5,117C 715.387,118.28 714.72,119.113 713.5,119.5C 711.727,117.047 710.227,114.381 709,111.5C 707.989,110.663 706.822,110.33 705.5,110.5C 706.577,113.227 707.577,116.06 708.5,119C 708.355,119.772 708.022,120.439 707.5,121C 705.887,121.089 704.72,120.255 704,118.5C 702.392,115.649 701.726,112.649 702,109.5C 703.688,107.955 705.688,106.955 708,106.5C 708.333,106.833 708.667,107.167 709,107.5C 710.397,105.93 711.897,104.596 713.5,103.5 Z"/></g>
<g><path style="opacity:1" fill="#f9fcfa" d="M 164.5,113.5 C 179.515,113.167 194.515,113.501 209.5,114.5C 210.65,129.122 210.816,143.788 210,158.5C 209.25,159.126 208.416,159.626 207.5,160C 193.167,160.667 178.833,160.667 164.5,160C 163.809,158.933 163.309,157.766 163,156.5C 162.333,142.833 162.333,129.167 163,115.5C 163.717,114.956 164.217,114.289 164.5,113.5 Z"/></g>
<g><path style="opacity:1" fill="#5ba671" d="M 690.5,112.5 C 697.74,112.023 700.574,115.356 699,122.5C 694.672,127.965 690.505,127.798 686.5,122C 684.771,117.558 686.104,114.391 690.5,112.5 Z"/></g>
<g><path style="opacity:1" fill="#5ca572" d="M 676.5,117.5 C 678.144,117.286 679.644,117.62 681,118.5C 682.087,122.506 683.587,126.339 685.5,130C 683.991,134.514 680.824,137.014 676,137.5C 675.626,136.584 675.126,135.75 674.5,135C 677.154,133.955 679.488,132.455 681.5,130.5C 681.333,130.167 681.167,129.833 681,129.5C 674.921,133.251 671.421,131.584 670.5,124.5C 670.758,120.581 672.758,118.248 676.5,117.5 Z"/></g>
<g><path style="opacity:1" fill="#53aa6c" d="M 171.5,121.5 C 181.5,121.5 191.5,121.5 201.5,121.5C 201.5,131.5 201.5,141.5 201.5,151.5C 191.5,151.5 181.5,151.5 171.5,151.5C 171.5,141.5 171.5,131.5 171.5,121.5 Z"/></g>
<g><path style="opacity:1" fill="#5ba671" d="M 658.5,123.5 C 664.21,122.853 667.544,125.353 668.5,131C 667.439,136.538 664.106,138.538 658.5,137C 653.209,132.55 653.209,128.05 658.5,123.5 Z"/></g>
<g><path style="opacity:1" fill="#63a877" d="M 648.5,125.5 C 648.34,127.199 648.506,128.866 649,130.5C 650.071,134.448 651.571,138.115 653.5,141.5C 652.127,141.657 650.793,141.49 649.5,141C 647.733,138.456 646.066,135.956 644.5,133.5C 645.866,130.768 647.199,128.101 648.5,125.5 Z"/></g>
<g><path style="opacity:1" fill="#d8e6dc" d="M 70.5,127.5 C 70.5,132.167 70.5,136.833 70.5,141.5C 73.5133,141.107 76.1799,141.774 78.5,143.5C 78.5,147.167 78.5,150.833 78.5,154.5C 75.9039,155.265 73.2372,155.599 70.5,155.5C 70.8305,176.007 70.4972,196.34 69.5,216.5C 69.1686,186.662 69.5019,156.995 70.5,127.5 Z"/></g>
<g><path style="opacity:1" fill="#5ba571" d="M 48.5,155.5 C 48.5,158.5 48.5,161.5 48.5,164.5C 39.3802,168.56 35.5469,165.56 37,155.5C 40.8306,151.555 44.6639,151.555 48.5,155.5 Z"/></g>
<g><path style="opacity:1" fill="#5ca572" d="M 23.5,154.5 C 24.5,154.5 25.5,154.5 26.5,154.5C 25.9733,158.955 27.4733,159.621 31,156.5C 31.3742,157.416 31.8742,158.25 32.5,159C 28.5109,160.049 27.6776,162.216 30,165.5C 38.057,166.526 38.3903,168.526 31,171.5C 28.5409,171.11 26.8743,169.776 26,167.5C 25.0801,163.737 23.5801,160.237 21.5,157C 22.3805,156.292 23.0472,155.458 23.5,154.5 Z"/></g>
<g><path style="opacity:1" fill="#5da572" d="M 15.5,161.5 C 17.3464,161.222 18.6798,161.889 19.5,163.5C 17.7127,164.316 16.0461,165.316 14.5,166.5C 17.0865,167.48 19.7531,167.813 22.5,167.5C 23.4052,174.238 20.4052,177.238 13.5,176.5C 13.5,175.5 13.5,174.5 13.5,173.5C 15.4286,173.769 17.0953,173.269 18.5,172C 15.093,171.572 12.4263,169.572 10.5,166C 11.4445,163.554 13.1112,162.054 15.5,161.5 Z"/></g>
<g><path style="opacity:1" fill="#5ca572" d="M -0.5,167.5 C 1.92397,167.192 4.25731,167.526 6.5,168.5C 12.2477,177.62 9.91441,181.62 -0.5,180.5C -0.5,176.167 -0.5,171.833 -0.5,167.5 Z"/></g>
<g><path style="opacity:1" fill="#c2dfca" d="M 479.5,187.5 C 477.69,188.955 476.023,188.788 474.5,187C 468.843,186.501 463.176,186.334 457.5,186.5C 457.5,197.833 457.5,209.167 457.5,220.5C 456.505,209.012 456.172,197.345 456.5,185.5C 463.175,185.334 469.842,185.5 476.5,186C 477.737,186.232 478.737,186.732 479.5,187.5 Z"/></g>
<g><path style="opacity:1" fill="#fdfefd" d="M 489.5,186.5 C 491.167,186.5 492.833,186.5 494.5,186.5C 494.5,188.167 494.5,189.833 494.5,191.5C 494.5,189.833 494.5,188.167 494.5,186.5C 492.833,186.5 491.167,186.5 489.5,186.5 Z"/></g>
<g><path style="opacity:1" fill="#b0d8bb" d="M 489.5,186.5 C 491.265,185.539 493.265,185.205 495.5,185.5C 495.795,187.735 495.461,189.735 494.5,191.5C 494.5,189.833 494.5,188.167 494.5,186.5C 492.833,186.5 491.167,186.5 489.5,186.5 Z"/></g>
<g><path style="opacity:1" fill="#f8fcf9" d="M 558.5,185.5 C 560.167,185.5 561.833,185.5 563.5,185.5C 563.5,187.5 563.5,189.5 563.5,191.5C 561.833,191.5 560.167,191.5 558.5,191.5C 558.5,189.5 558.5,187.5 558.5,185.5 Z"/></g>
<g><path style="opacity:1" fill="#f5faf6" d="M 501.5,195.5 C 503.167,195.5 504.833,195.5 506.5,195.5C 506.281,196.675 506.614,197.675 507.5,198.5C 512.47,194.703 517.304,194.703 522,198.5C 522.5,206.159 522.666,213.826 522.5,221.5C 520.856,221.714 519.356,221.38 518,220.5C 517.667,213.833 517.333,207.167 517,200.5C 513.156,198.762 509.823,199.429 507,202.5C 506.501,208.491 506.334,214.491 506.5,220.5C 504.833,220.5 503.167,220.5 501.5,220.5C 501.5,212.167 501.5,203.833 501.5,195.5 Z"/></g>
<g><path style="opacity:1" fill="#f2f9f4" d="M 535.5,195.5 C 539.911,195.021 544.078,195.688 548,197.5C 549.584,196.139 551.418,195.472 553.5,195.5C 553.675,198.329 552.342,199.996 549.5,200.5C 550.61,203.686 549.943,206.52 547.5,209C 542.655,209.85 537.989,211.183 533.5,213C 538.696,214.26 544.03,215.26 549.5,216C 553.5,219.667 553.5,223.333 549.5,227C 543.317,229.947 536.984,230.28 530.5,228C 526.552,224.486 526.552,220.986 530.5,217.5C 528.883,214.378 529.55,211.878 532.5,210C 529.606,207.091 528.773,203.591 530,199.5C 531.812,198.023 533.645,196.69 535.5,195.5 Z"/></g>
<g><path style="opacity:1" fill="#cbe5d2" d="M 494.5,196.5 C 493.167,196.5 491.833,196.5 490.5,196.5C 490.5,204.5 490.5,212.5 490.5,220.5C 491.833,220.5 493.167,220.5 494.5,220.5C 493.081,221.451 491.415,221.784 489.5,221.5C 489.5,212.833 489.5,204.167 489.5,195.5C 491.415,195.216 493.081,195.549 494.5,196.5 Z"/></g>
<g><path style="opacity:1" fill="#fefffe" d="M 494.5,196.5 C 494.5,204.5 494.5,212.5 494.5,220.5C 493.167,220.5 491.833,220.5 490.5,220.5C 490.5,212.5 490.5,204.5 490.5,196.5C 491.833,196.5 493.167,196.5 494.5,196.5 Z"/></g>
<g><path style="opacity:1" fill="#fcfdfd" d="M 558.5,195.5 C 560.167,195.5 561.833,195.5 563.5,195.5C 563.5,203.833 563.5,212.167 563.5,220.5C 561.833,220.5 560.167,220.5 558.5,220.5C 558.5,212.167 558.5,203.833 558.5,195.5 Z"/></g>
<g><path style="opacity:1" fill="#55aa6e" d="M 536.5,198.5 C 539.32,198.248 541.986,198.748 544.5,200C 546.69,204.73 545.19,207.23 540,207.5C 532.839,206.853 531.673,203.853 536.5,198.5 Z"/></g>
<g><path style="opacity:1" fill="#5ca572" d="M 450.5,199.5 C 455.745,200.75 455.745,202.417 450.5,204.5C 451.065,207.508 452.065,210.341 453.5,213C 450.683,214.984 448.849,214.15 448,210.5C 447.421,208.351 446.921,206.185 446.5,204C 447.167,201.849 448.5,200.349 450.5,199.5 Z"/></g>
<g><path style="opacity:1" fill="#fafcfb" d="M 437.5,205.5 C 437.5,206.833 437.5,208.167 437.5,209.5C 435.5,209.5 433.5,209.5 431.5,209.5C 429.833,209.5 428.167,209.5 426.5,209.5C 423.5,209.5 420.5,209.5 417.5,209.5C 402.5,209.5 387.5,209.5 372.5,209.5C 372.5,208.167 372.5,206.833 372.5,205.5C 394.167,205.5 415.833,205.5 437.5,205.5 Z"/></g>
<g><path style="opacity:1" fill="#5ca572" d="M 437.5,205.5 C 440.48,205.641 442.48,207.141 443.5,210C 441.71,211.734 439.71,213.234 437.5,214.5C 439.343,214.755 441.343,214.922 443.5,215C 444.641,215.741 444.641,216.575 443.5,217.5C 438.943,220.621 435.11,219.954 432,215.5C 431.505,213.527 431.338,211.527 431.5,209.5C 433.5,209.5 435.5,209.5 437.5,209.5C 437.5,208.167 437.5,206.833 437.5,205.5 Z"/></g>
<g><path style="opacity:1" fill="#f5f7f6" d="M 479.5,187.5 C 483.315,190.107 484.482,193.774 483,198.5C 481.5,201.333 479.333,203.5 476.5,205C 478.793,209.382 480.793,213.882 482.5,218.5C 481.448,220.256 479.781,220.923 477.5,220.5C 475.577,215.902 473.743,211.235 472,206.5C 468.943,205.549 465.777,205.216 462.5,205.5C 462.5,210.5 462.5,215.5 462.5,220.5C 460.833,220.5 459.167,220.5 457.5,220.5C 457.5,209.167 457.5,197.833 457.5,186.5C 463.176,186.334 468.843,186.501 474.5,187C 476.023,188.788 477.69,188.955 479.5,187.5 Z"/></g>
<g><path style="opacity:1" fill="#67ac7b" d="M 474.5,190.5 C 470.833,190.5 467.167,190.5 463.5,190.5C 463.215,192.288 463.548,193.955 464.5,195.5C 466.167,194.833 467.833,194.167 469.5,193.5C 471.954,195.103 473.954,197.103 475.5,199.5C 471.806,201.412 467.806,201.912 463.5,201C 462.54,197.27 462.207,193.437 462.5,189.5C 466.702,189.183 470.702,189.517 474.5,190.5 Z"/></g>
<g><path style="opacity:1" fill="#53aa6d" d="M 474.5,190.5 C 476.714,191.392 477.714,193.058 477.5,195.5C 477.66,197.355 476.993,198.688 475.5,199.5C 473.954,197.103 471.954,195.103 469.5,193.5C 467.833,194.167 466.167,194.833 464.5,195.5C 463.548,193.955 463.215,192.288 463.5,190.5C 467.167,190.5 470.833,190.5 474.5,190.5 Z"/></g>
<g><path style="opacity:1" fill="#fcfdfc" d="M 583.5,205.5 C 605.167,205.5 626.833,205.5 648.5,205.5C 648.5,206.833 648.5,208.167 648.5,209.5C 626.833,209.5 605.167,209.5 583.5,209.5C 583.5,208.167 583.5,206.833 583.5,205.5 Z"/></g>
<g><path style="opacity:1" fill="#5ca572" d="M 417.5,209.5 C 420.5,209.5 423.5,209.5 426.5,209.5C 427.826,211.565 427.159,212.898 424.5,213.5C 423.386,214.723 423.219,216.056 424,217.5C 426.593,218.77 429.093,220.103 431.5,221.5C 428.297,224.122 425.13,224.122 422,221.5C 420.193,217.595 418.693,213.595 417.5,209.5 Z"/></g>
<g><path style="opacity:1" fill="#5da572" d="M 408.5,214.5 C 410.5,214.5 412.5,214.5 414.5,214.5C 414.5,215.5 414.5,216.5 414.5,217.5C 412.897,217.312 411.563,217.812 410.5,219C 420.923,222.369 420.923,225.869 410.5,229.5C 409.5,229.167 408.833,228.5 408.5,227.5C 410.655,226.59 412.655,225.423 414.5,224C 406.744,224.311 404.744,221.144 408.5,214.5 Z"/></g>
<g><path style="opacity:1" fill="#5cae74" d="M 533.5,218.5 C 537.514,218.334 541.514,218.501 545.5,219C 548.371,221.84 548.037,224.174 544.5,226C 541.5,226.667 538.5,226.667 535.5,226C 530.881,224.568 530.214,222.068 533.5,218.5 Z"/></g>
<g><path style="opacity:1" fill="#5ca572" d="M 395.5,219.5 C 398.044,219.104 400.211,219.771 402,221.5C 403.015,224.558 404.181,227.558 405.5,230.5C 403,232.5 400.166,233.833 397,234.5C 394.646,233.644 393.146,231.977 392.5,229.5C 393.848,226.987 395.848,225.153 398.5,224C 396.765,223.349 395.098,223.515 393.5,224.5C 392.5,224.167 391.833,223.5 391.5,222.5C 392.901,221.479 394.235,220.479 395.5,219.5 Z"/></g>
<g><path style="opacity:1" fill="#a9d5b6" d="M 482.5,218.5 C 483.404,219.209 483.737,220.209 483.5,221.5C 481.265,221.795 479.265,221.461 477.5,220.5C 479.781,220.923 481.448,220.256 482.5,218.5 Z"/></g>
<g><path style="opacity:1" fill="#a6d3b3" d="M 58.5,224.5 C 99.8333,224.5 141.167,224.5 182.5,224.5C 182.81,227.713 182.477,230.713 181.5,233.5C 181.5,230.833 181.5,228.167 181.5,225.5C 140.33,225.832 99.3299,225.499 58.5,224.5 Z"/></g>
<g><path style="opacity:1" fill="#5da572" d="M 382.5,224.5 C 384.17,224.751 385.67,225.418 387,226.5C 388.496,229.649 389.996,232.816 391.5,236C 390.5,236.5 389.5,237 388.5,237.5C 386.735,234.291 384.735,231.291 382.5,228.5C 381.692,228.808 381.025,229.308 380.5,230C 382.404,232.877 383.404,236.044 383.5,239.5C 382.167,239.5 380.833,239.5 379.5,239.5C 379.893,234.683 377.893,232.183 373.5,232C 374.776,234.554 375.776,237.221 376.5,240C 376.231,241.607 375.397,242.774 374,243.5C 372.277,239.792 370.777,235.958 369.5,232C 369.759,230.739 370.426,229.739 371.5,229C 375.577,228.175 379.244,226.675 382.5,224.5 Z"/></g>
<g><path style="opacity:1" fill="#5ba671" d="M 360.5,232.5 C 367.236,234.647 369.07,238.981 366,245.5C 357.128,249.211 353.462,246.211 355,236.5C 356.5,234.531 358.333,233.198 360.5,232.5 Z"/></g>
<g><path style="opacity:1" fill="#5ca572" d="M 342.5,238.5 C 344.792,238.244 346.959,238.577 349,239.5C 352.031,244.069 353.031,249.069 352,254.5C 349.96,256.353 347.627,257.686 345,258.5C 343.812,257.437 343.312,256.103 343.5,254.5C 345.665,254.884 347.332,254.217 348.5,252.5C 341.454,252.699 338.288,249.365 339,242.5C 340.102,241.051 341.269,239.718 342.5,238.5 Z"/></g>
<g><path style="opacity:1" fill="#5da572" d="M 312.5,243.5 C 314.335,244.122 315.502,245.456 316,247.5C 316.89,251.332 318.056,254.999 319.5,258.5C 320.5,258.5 321.5,258.5 322.5,258.5C 322.299,262.35 320.466,263.35 317,261.5C 315.591,257.684 313.924,254.017 312,250.5C 311.297,248.071 311.463,245.738 312.5,243.5 Z"/></g>
<g><path style="opacity:1" fill="#5ba671" d="M 327.5,244.5 C 335.337,245.175 337.837,249.175 335,256.5C 328.214,260.695 324.047,258.695 322.5,250.5C 323.497,247.845 325.164,245.845 327.5,244.5 Z"/></g>
</svg>
